<svg width="156" height="32" viewBox="0 0 113 32" fill="none" xmlns="http://www.w3.org/2000/svg">
  <defs></defs>
  <path fill-rule="evenodd" clip-rule="evenodd" d="M20.4687 1.60156V30.6984H19.0608V1.60156H20.4687Z" fill="white"></path>
  <path fill-rule="evenodd" clip-rule="evenodd" d="M42.8147 18.2598L0.107982 21.5449L0 20.1411L42.7067 16.856L42.8147 18.2598Z" fill="white"></path>
  <path fill-rule="evenodd" clip-rule="evenodd" d="M30.749 24.7744L10.0996 15.8577L10.6578 14.5651L31.3071 23.4819L30.749 24.7744Z" fill="white"></path>
  <path fill-rule="evenodd" clip-rule="evenodd" d="M19.1458 19.0998L25.2467 7.83653L26.4847 8.5071L20.3837 19.7704L19.1458 19.0998Z" fill="white"></path>
  <path fill-rule="evenodd" clip-rule="evenodd" d="M19.6097 18.7484L34.1581 15.4633L34.4682 16.8367L19.9198 20.1218L19.6097 18.7484Z" fill="white"></path>
  <path d="M49.2784 21.5V9.86363H51.0341V19.9886H56.3068V21.5H49.2784ZM57.8533 21.5V12.7727H59.5522V21.5H57.8533ZM58.7113 11.4261C58.4158 11.4261 58.162 11.3276 57.9499 11.1307C57.7416 10.9299 57.6374 10.6913 57.6374 10.4148C57.6374 10.1345 57.7416 9.89583 57.9499 9.69886C58.162 9.4981 58.4158 9.39773 58.7113 9.39773C59.0067 9.39773 59.2586 9.4981 59.4669 9.69886C59.6791 9.89583 59.7851 10.1345 59.7851 10.4148C59.7851 10.6913 59.6791 10.9299 59.4669 11.1307C59.2586 11.3276 59.0067 11.4261 58.7113 11.4261ZM61.5177 21.5V12.7727H63.1484V14.1932H63.2563C63.4381 13.7121 63.7355 13.3371 64.1484 13.0682C64.5612 12.7955 65.0556 12.6591 65.6313 12.6591C66.2146 12.6591 66.7033 12.7955 67.0972 13.0682C67.4949 13.3409 67.7885 13.7159 67.9779 14.1932H68.0688C68.2771 13.7273 68.6086 13.3561 69.0631 13.0795C69.5177 12.7992 70.0593 12.6591 70.6881 12.6591C71.4798 12.6591 72.1256 12.9072 72.6256 13.4034C73.1294 13.8996 73.3813 14.6477 73.3813 15.6477V21.5H71.6824V15.8068C71.6824 15.2159 71.5215 14.7879 71.1995 14.5227C70.8775 14.2576 70.4931 14.125 70.0461 14.125C69.4931 14.125 69.0631 14.2955 68.7563 14.6364C68.4495 14.9735 68.2961 15.4072 68.2961 15.9375V21.5H66.6029V15.6989C66.6029 15.2254 66.4552 14.8447 66.1597 14.5568C65.8643 14.2689 65.4798 14.125 65.0063 14.125C64.6843 14.125 64.387 14.2102 64.1143 14.3807C63.8453 14.5473 63.6275 14.7803 63.4609 15.0795C63.298 15.3788 63.2165 15.7254 63.2165 16.1193V21.5H61.5177ZM75.3383 21.5V12.7727H77.0372V21.5H75.3383ZM76.1963 11.4261C75.9008 11.4261 75.647 11.3276 75.4349 11.1307C75.2266 10.9299 75.1224 10.6913 75.1224 10.4148C75.1224 10.1345 75.2266 9.89583 75.4349 9.69886C75.647 9.4981 75.9008 9.39773 76.1963 9.39773C76.4917 9.39773 76.7436 9.4981 76.9519 9.69886C77.1641 9.89583 77.2701 10.1345 77.2701 10.4148C77.2701 10.6913 77.1641 10.9299 76.9519 11.1307C76.7436 11.3276 76.4917 11.4261 76.1963 11.4261ZM83.0765 12.7727V14.1364H78.3095V12.7727H83.0765ZM79.5879 10.6818H81.2868V18.9375C81.2868 19.267 81.336 19.5152 81.4345 19.6818C81.533 19.8447 81.6599 19.9564 81.8152 20.017C81.9743 20.0739 82.1466 20.1023 82.3322 20.1023C82.4686 20.1023 82.5879 20.0928 82.6902 20.0739C82.7924 20.0549 82.872 20.0398 82.9288 20.0284L83.2356 21.4318C83.1371 21.4697 82.997 21.5076 82.8152 21.5455C82.6334 21.5871 82.4061 21.6098 82.1334 21.6136C81.6864 21.6212 81.2697 21.5417 80.8834 21.375C80.497 21.2083 80.1845 20.9508 79.9459 20.6023C79.7072 20.2538 79.5879 19.8163 79.5879 19.2898V10.6818ZM86.5222 9.86363V21.5H84.8233V9.86363H86.5222ZM92.249 21.6761C91.3892 21.6761 90.6487 21.4924 90.0274 21.125C89.41 20.7538 88.9328 20.233 88.5956 19.5625C88.2623 18.8883 88.0956 18.0985 88.0956 17.1932C88.0956 16.2992 88.2623 15.5114 88.5956 14.8295C88.9328 14.1477 89.4024 13.6155 90.0047 13.233C90.6108 12.8504 91.3191 12.6591 92.1297 12.6591C92.6221 12.6591 93.0994 12.7405 93.5615 12.9034C94.0237 13.0663 94.4384 13.322 94.8059 13.6705C95.1733 14.0189 95.4631 14.4716 95.6752 15.0284C95.8873 15.5814 95.9934 16.2538 95.9934 17.0455V17.6477H89.0559V16.375H94.3286C94.3286 15.928 94.2377 15.5322 94.0559 15.1875C93.874 14.839 93.6184 14.5644 93.2888 14.3636C92.9631 14.1629 92.5805 14.0625 92.1411 14.0625C91.6638 14.0625 91.2471 14.1799 90.8911 14.4148C90.5388 14.6458 90.2661 14.9489 90.0729 15.3239C89.8835 15.6951 89.7888 16.0985 89.7888 16.5341V17.5284C89.7888 18.1117 89.8911 18.608 90.0956 19.017C90.304 19.4261 90.5937 19.7386 90.9649 19.9545C91.3362 20.1667 91.7699 20.2727 92.2661 20.2727C92.5881 20.2727 92.8816 20.2273 93.1468 20.1364C93.4119 20.0417 93.6411 19.9015 93.8343 19.7159C94.0274 19.5303 94.1752 19.3011 94.2774 19.0284L95.8854 19.3182C95.7566 19.7917 95.5256 20.2064 95.1922 20.5625C94.8627 20.9148 94.4479 21.1894 93.9479 21.3864C93.4517 21.5795 92.8854 21.6761 92.249 21.6761ZM104.098 14.9034L102.558 15.1761C102.494 14.9792 102.392 14.7917 102.251 14.6136C102.115 14.4356 101.93 14.2898 101.695 14.1761C101.46 14.0625 101.166 14.0057 100.814 14.0057C100.333 14.0057 99.9314 14.1136 99.6094 14.3295C99.2875 14.5417 99.1265 14.8163 99.1265 15.1534C99.1265 15.4451 99.2344 15.6799 99.4503 15.858C99.6663 16.036 100.015 16.1818 100.496 16.2955L101.882 16.6136C102.685 16.7992 103.284 17.0852 103.678 17.4716C104.072 17.858 104.269 18.3598 104.269 18.9773C104.269 19.5 104.117 19.9659 103.814 20.375C103.515 20.7803 103.096 21.0985 102.558 21.3295C102.024 21.5606 101.405 21.6761 100.7 21.6761C99.7231 21.6761 98.9257 21.4678 98.3083 21.0511C97.6909 20.6307 97.3121 20.0341 97.1719 19.2614L98.814 19.0114C98.9163 19.4394 99.1265 19.7633 99.4447 19.983C99.7628 20.1989 100.178 20.3068 100.689 20.3068C101.246 20.3068 101.691 20.1913 102.024 19.9602C102.358 19.7254 102.524 19.4394 102.524 19.1023C102.524 18.8295 102.422 18.6004 102.217 18.4148C102.017 18.2292 101.708 18.089 101.291 17.9943L99.814 17.6705C98.9996 17.4848 98.3973 17.1894 98.0072 16.7841C97.6208 16.3788 97.4276 15.8655 97.4276 15.2443C97.4276 14.7292 97.5716 14.2784 97.8594 13.892C98.1473 13.5057 98.545 13.2045 99.0526 12.9886C99.5602 12.7689 100.142 12.6591 100.797 12.6591C101.74 12.6591 102.483 12.8636 103.024 13.2727C103.566 13.678 103.924 14.2216 104.098 14.9034ZM112.356 14.9034L110.816 15.1761C110.752 14.9792 110.65 14.7917 110.51 14.6136C110.373 14.4356 110.188 14.2898 109.953 14.1761C109.718 14.0625 109.424 14.0057 109.072 14.0057C108.591 14.0057 108.19 14.1136 107.868 14.3295C107.546 14.5417 107.385 14.8163 107.385 15.1534C107.385 15.4451 107.493 15.6799 107.708 15.858C107.924 16.036 108.273 16.1818 108.754 16.2955L110.14 16.6136C110.943 16.7992 111.542 17.0852 111.936 17.4716C112.33 17.858 112.527 18.3598 112.527 18.9773C112.527 19.5 112.375 19.9659 112.072 20.375C111.773 20.7803 111.354 21.0985 110.816 21.3295C110.282 21.5606 109.663 21.6761 108.958 21.6761C107.981 21.6761 107.184 21.4678 106.566 21.0511C105.949 20.6307 105.57 20.0341 105.43 19.2614L107.072 19.0114C107.174 19.4394 107.385 19.7633 107.703 19.983C108.021 20.1989 108.436 20.3068 108.947 20.3068C109.504 20.3068 109.949 20.1913 110.282 19.9602C110.616 19.7254 110.782 19.4394 110.782 19.1023C110.782 18.8295 110.68 18.6004 110.476 18.4148C110.275 18.2292 109.966 18.089 109.549 17.9943L108.072 17.6705C107.258 17.4848 106.655 17.1894 106.265 16.7841C105.879 16.3788 105.686 15.8655 105.686 15.2443C105.686 14.7292 105.83 14.2784 106.118 13.892C106.405 13.5057 106.803 13.2045 107.311 12.9886C107.818 12.7689 108.4 12.6591 109.055 12.6591C109.998 12.6591 110.741 12.8636 111.282 13.2727C111.824 13.678 112.182 14.2216 112.356 14.9034Z" fill="white"></path>
</svg>
