<svg width="420" height="78" viewBox="0 0 420 78" fill="none" xmlns="http://www.w3.org/2000/svg">
<path fill-rule="evenodd" clip-rule="evenodd" d="M0 12.2772V31.1776C7.89862 28.3096 13.9482 26.4071 20.0476 25.5734V6.38086C14.6698 6.87792 10.5578 8.3942 4.01451 10.807L4.01451 10.807L4.01425 10.8071C2.7722 11.2651 1.44254 11.7554 0 12.2772ZM0 67.9024C6.4272 65.6508 13.0219 64.1758 20.0476 63.4526V44.3384C28.983 43.5332 34.7297 44.1781 40.0988 45.3573L40.0987 63.7198C45.3504 64.6233 50.1771 66.2045 54.9436 67.766C56.6799 68.3348 58.4083 68.901 60.1463 69.4308V51.3641C67.1471 53.2667 72.8404 53.8581 80.1939 52.8641V33.8033C73.1112 34.9292 66.602 34.5016 60.1463 33.0801V51.3356C57.4039 50.5917 54.7129 49.7096 51.9959 48.819C48.1548 47.5599 44.2618 46.2839 40.0988 45.3573V27.1018C42.7784 27.8318 45.422 28.6949 48.092 29.5666L48.0921 29.5666C51.9895 30.839 55.9431 32.1298 60.1463 33.0516V14.7462C54.8062 13.831 49.9039 12.2208 45.0911 10.6399C43.4211 10.0913 41.7618 9.54632 40.0987 9.03511L40.0988 27.1018C33.2333 25.2242 27.4047 24.583 20.0476 25.5734V44.3384C12.9363 44.9833 7.13619 46.5081 0 49.002V67.9024ZM100.245 64.7886V45.8918C94.1991 49.6968 86.9525 51.9484 80.1975 52.8605V72.053C87.0344 71.4082 93.4082 69.1031 100.245 64.7886ZM100.245 8.49713C94.4449 10.8842 87.551 13.2427 80.1975 14.5289V33.8033C87.3583 32.6676 93.3593 30.2135 99.5338 27.6883L100.245 27.3975V8.49713Z" fill="black"/>
<path d="M174.2 45.72C174.2 51.9067 172.472 56.5147 169.016 59.544C165.56 62.5307 160.781 64.024 154.68 64.024C148.493 64.024 143.693 62.5307 140.28 59.544C136.909 56.5573 135.224 51.9493 135.224 45.72V17.304H145.272V45.72C145.272 46.9573 145.379 48.1733 145.592 49.368C145.805 50.5627 146.253 51.6293 146.936 52.568C147.619 53.464 148.557 54.2107 149.752 54.808C150.989 55.3627 152.632 55.64 154.68 55.64C158.264 55.64 160.739 54.8507 162.104 53.272C163.469 51.6507 164.152 49.1333 164.152 45.72V17.304H174.2V45.72ZM181.894 29.912H190.534V34.52H190.726C191.878 32.6 193.371 31.2133 195.206 30.36C197.04 29.464 198.918 29.016 200.838 29.016C203.27 29.016 205.254 29.3573 206.79 30.04C208.368 30.68 209.606 31.5973 210.502 32.792C211.398 33.944 212.016 35.3733 212.358 37.08C212.742 38.744 212.934 40.6 212.934 42.648V63H203.846V44.312C203.846 41.5813 203.419 39.5547 202.566 38.232C201.712 36.8667 200.198 36.184 198.022 36.184C195.547 36.184 193.755 36.9307 192.646 38.424C191.536 39.8747 190.982 42.2853 190.982 45.656V63H181.894V29.912ZM227.895 46.488C227.895 47.8107 228.023 49.112 228.279 50.392C228.535 51.6293 228.962 52.76 229.559 53.784C230.199 54.7653 231.031 55.5547 232.055 56.152C233.079 56.7493 234.359 57.048 235.895 57.048C237.431 57.048 238.711 56.7493 239.735 56.152C240.802 55.5547 241.634 54.7653 242.231 53.784C242.871 52.76 243.319 51.6293 243.575 50.392C243.831 49.112 243.959 47.8107 243.959 46.488C243.959 45.1653 243.831 43.864 243.575 42.584C243.319 41.304 242.871 40.1733 242.231 39.192C241.634 38.2107 240.802 37.4213 239.735 36.824C238.711 36.184 237.431 35.864 235.895 35.864C234.359 35.864 233.079 36.184 232.055 36.824C231.031 37.4213 230.199 38.2107 229.559 39.192C228.962 40.1733 228.535 41.304 228.279 42.584C228.023 43.864 227.895 45.1653 227.895 46.488ZM218.807 46.488C218.807 43.8427 219.212 41.4533 220.023 39.32C220.834 37.144 221.986 35.3093 223.479 33.816C224.972 32.28 226.764 31.1067 228.855 30.296C230.946 29.4427 233.292 29.016 235.895 29.016C238.498 29.016 240.844 29.4427 242.935 30.296C245.068 31.1067 246.882 32.28 248.375 33.816C249.868 35.3093 251.02 37.144 251.831 39.32C252.642 41.4533 253.047 43.8427 253.047 46.488C253.047 49.1333 252.642 51.5227 251.831 53.656C251.02 55.7893 249.868 57.624 248.375 59.16C246.882 60.6533 245.068 61.8053 242.935 62.616C240.844 63.4267 238.498 63.832 235.895 63.832C233.292 63.832 230.946 63.4267 228.855 62.616C226.764 61.8053 224.972 60.6533 223.479 59.16C221.986 57.624 220.834 55.7893 220.023 53.656C219.212 51.5227 218.807 49.1333 218.807 46.488ZM280.332 35.992H270.028V63H260.94V35.992H255.5V29.912H260.94V27.352C260.94 24.408 261.857 21.9973 263.692 20.12C265.527 18.2427 268.3 17.304 272.012 17.304C272.823 17.304 273.633 17.3467 274.444 17.432C275.255 17.4747 276.044 17.5173 276.812 17.56V24.344C275.703 24.216 274.593 24.152 273.484 24.152C272.247 24.152 271.351 24.4507 270.796 25.048C270.284 25.6027 270.028 26.5627 270.028 27.928V29.912H280.332V27.352C280.332 24.408 281.249 21.9973 283.084 20.12C284.919 18.2427 287.692 17.304 291.404 17.304C292.215 17.304 293.025 17.3467 293.836 17.432C294.647 17.4747 295.436 17.5173 296.204 17.56V24.344C295.095 24.216 293.985 24.152 292.876 24.152C291.639 24.152 290.743 24.4507 290.188 25.048C289.676 25.6027 289.42 26.5627 289.42 27.928V29.912H295.692V35.992H289.42V63H280.332V35.992ZM309.004 24.792H299.916V17.304H309.004V24.792ZM299.916 29.912H309.004V63H299.916V29.912ZM338.672 41.56C338.074 37.7627 335.834 35.864 331.952 35.864C330.501 35.864 329.285 36.2053 328.304 36.888C327.322 37.528 326.512 38.3813 325.872 39.448C325.274 40.472 324.848 41.624 324.592 42.904C324.336 44.1413 324.208 45.3787 324.208 46.616C324.208 47.8107 324.336 49.0267 324.592 50.264C324.848 51.5013 325.253 52.632 325.808 53.656C326.405 54.6373 327.194 55.448 328.176 56.088C329.157 56.728 330.352 57.048 331.76 57.048C333.936 57.048 335.6 56.4507 336.752 55.256C337.946 54.0187 338.693 52.376 338.992 50.328H347.76C347.162 54.7227 345.456 58.072 342.64 60.376C339.824 62.68 336.218 63.832 331.824 63.832C329.349 63.832 327.066 63.4267 324.976 62.616C322.928 61.7627 321.178 60.5893 319.728 59.096C318.277 57.6027 317.146 55.832 316.336 53.784C315.525 51.6933 315.12 49.4107 315.12 46.936C315.12 44.376 315.482 42.008 316.208 39.832C316.976 37.6133 318.085 35.7147 319.536 34.136C320.986 32.5147 322.757 31.256 324.848 30.36C326.938 29.464 329.328 29.016 332.016 29.016C333.978 29.016 335.856 29.272 337.648 29.784C339.482 30.296 341.104 31.0853 342.512 32.152C343.962 33.176 345.136 34.4773 346.032 36.056C346.928 37.592 347.44 39.4267 347.568 41.56H338.672ZM362.238 24.792H353.15V17.304H362.238V24.792ZM353.15 29.912H362.238V63H353.15V29.912ZM369.01 40.088C369.138 37.9547 369.671 36.184 370.61 34.776C371.548 33.368 372.743 32.2373 374.194 31.384C375.644 30.5307 377.266 29.9333 379.058 29.592C380.892 29.208 382.727 29.016 384.562 29.016C386.226 29.016 387.911 29.144 389.618 29.4C391.324 29.6133 392.882 30.0613 394.29 30.744C395.698 31.4267 396.85 32.3867 397.746 33.624C398.642 34.8187 399.09 36.4187 399.09 38.424V55.64C399.09 57.1333 399.175 58.5627 399.346 59.928C399.516 61.2933 399.815 62.3173 400.242 63H391.026C390.855 62.488 390.706 61.976 390.578 61.464C390.492 60.9093 390.428 60.3547 390.386 59.8C388.935 61.2933 387.228 62.3387 385.266 62.936C383.303 63.5333 381.298 63.832 379.25 63.832C377.671 63.832 376.199 63.64 374.834 63.256C373.468 62.872 372.274 62.2747 371.25 61.464C370.226 60.6533 369.415 59.6293 368.818 58.392C368.263 57.1547 367.986 55.6827 367.986 53.976C367.986 52.0987 368.306 50.5627 368.946 49.368C369.628 48.1307 370.482 47.1493 371.506 46.424C372.572 45.6987 373.767 45.1653 375.09 44.824C376.455 44.44 377.82 44.1413 379.186 43.928C380.551 43.7147 381.895 43.544 383.218 43.416C384.54 43.288 385.714 43.096 386.738 42.84C387.762 42.584 388.572 42.2213 389.17 41.752C389.767 41.24 390.044 40.5147 390.002 39.576C390.002 38.5947 389.831 37.8267 389.49 37.272C389.191 36.6747 388.764 36.2267 388.21 35.928C387.698 35.5867 387.079 35.3733 386.354 35.288C385.671 35.16 384.924 35.096 384.114 35.096C382.322 35.096 380.914 35.48 379.89 36.248C378.866 37.016 378.268 38.296 378.098 40.088H369.01ZM390.002 46.808C389.618 47.1493 389.127 47.4267 388.53 47.64C387.975 47.8107 387.356 47.96 386.674 48.088C386.034 48.216 385.351 48.3227 384.626 48.408C383.9 48.4933 383.175 48.6 382.45 48.728C381.767 48.856 381.084 49.0267 380.402 49.24C379.762 49.4533 379.186 49.752 378.674 50.136C378.204 50.4773 377.82 50.9253 377.522 51.48C377.223 52.0347 377.074 52.7387 377.074 53.592C377.074 54.4027 377.223 55.0853 377.522 55.64C377.82 56.1947 378.226 56.6427 378.738 56.984C379.25 57.2827 379.847 57.496 380.53 57.624C381.212 57.752 381.916 57.816 382.642 57.816C384.434 57.816 385.82 57.5173 386.802 56.92C387.783 56.3227 388.508 55.6187 388.978 54.808C389.447 53.9547 389.724 53.1013 389.81 52.248C389.938 51.3947 390.002 50.712 390.002 50.2V46.808ZM406.4 17.304H415.488V63H406.4V17.304Z" fill="black"/>
</svg>
