<svg width="513" height="205" viewBox="0 0 513 205" fill="none" xmlns="http://www.w3.org/2000/svg">
<g clip-path="url(#clip0_776_92)">
<mask id="mask0_776_92" style="mask-type:luminance" maskUnits="userSpaceOnUse" x="202" y="27" width="293" height="160">
<path d="M495 27H202V187H495V27Z" fill="white"/>
</mask>
<g mask="url(#mask0_776_92)">
<path d="M222.426 150.2V61.176C222.426 54.7419 223.821 49.0843 226.612 44.2032C229.402 39.2112 233.365 35.273 238.499 32.3888C243.633 29.5045 249.661 28.0624 256.581 28.0624C261.827 28.0624 266.348 28.9498 270.143 30.7248C273.938 32.4997 277.342 34.9402 280.356 38.0464L266.46 52.024C265.232 50.8037 263.892 49.8608 262.441 49.1952C260.99 48.5296 259.149 48.1968 256.916 48.1968C252.898 48.1968 249.773 49.3061 247.54 51.5248C245.419 53.6325 244.359 56.6832 244.359 60.6768V150.2H222.426ZM203.674 88.9648V69.8288H268.301V88.9648H203.674Z" fill="white"/>
<path fill-rule="evenodd" clip-rule="evenodd" d="M332.616 74.0942C330.654 72.3515 328.547 71.0406 326.295 70.1616C323.17 68.8304 319.654 68.1648 315.747 68.1648C306.706 68.1648 299.786 71.0491 294.986 76.8176C294.93 76.8837 294.874 76.9501 294.819 77.0168V69.8288H272.886V150.2H294.819V105.771C294.819 99.7808 296.27 95.3435 299.172 92.4592C302.186 89.464 306.037 87.9664 310.725 87.9664C312.957 87.9664 314.91 88.2992 316.585 88.9648C317.903 89.4562 319.069 90.129 320.084 90.9832C320.857 89.2093 321.749 87.488 322.759 85.819C325.434 81.3227 328.719 77.4146 332.616 74.0942Z" fill="white"/>
<path d="M364.019 151.864C355.871 151.864 348.504 150.034 341.919 146.373C335.445 142.601 330.255 137.554 326.348 131.23C322.553 124.796 320.655 117.641 320.655 109.765C320.655 101.888 322.553 94.8443 326.348 88.632C330.143 82.3088 335.333 77.3168 341.919 73.656C348.504 69.8843 355.815 67.9984 363.852 67.9984C372.112 67.9984 379.479 69.8843 385.952 73.656C392.538 77.3168 397.729 82.3088 401.523 88.632C405.318 94.8443 407.216 101.888 407.216 109.765C407.216 117.641 405.318 124.796 401.523 131.23C397.729 137.554 392.538 142.601 385.952 146.373C379.479 150.034 372.167 151.864 364.019 151.864ZM363.852 131.563C367.981 131.563 371.61 130.676 374.735 128.901C377.972 127.015 380.427 124.464 382.102 121.246C383.887 117.918 384.78 114.147 384.78 109.931C384.78 105.716 383.887 102 382.102 98.7824C380.316 95.5653 377.859 93.0693 374.735 91.2944C371.61 89.4085 367.981 88.4656 363.852 88.4656C359.834 88.4656 356.262 89.4085 353.136 91.2944C350.011 93.0693 347.555 95.5653 345.77 98.7824C343.984 102 343.091 105.716 343.091 109.931C343.091 114.147 343.984 117.918 345.77 121.246C347.555 124.464 350.011 127.015 353.136 128.901C356.262 130.676 359.834 131.563 363.852 131.563Z" fill="white"/>
<path d="M449.987 185.81C441.392 185.81 433.803 184.256 427.217 181.15C420.631 178.155 415.386 173.884 411.478 168.338L425.375 154.526C428.5 158.187 431.961 160.96 435.755 162.846C439.663 164.843 444.351 165.842 449.819 165.842C456.628 165.842 461.985 164.122 465.893 160.683C469.911 157.244 471.92 152.474 471.92 146.373V126.238L475.603 108.6L472.087 90.9616V69.8288H493.853V146.04C493.853 154.027 491.955 160.96 488.161 166.84C484.477 172.83 479.343 177.49 472.757 180.818C466.171 184.146 458.582 185.81 449.987 185.81ZM448.982 148.037C441.727 148.037 435.197 146.317 429.393 142.878C423.59 139.328 419.013 134.503 415.664 128.402C412.427 122.3 410.809 115.478 410.809 107.934C410.809 100.391 412.427 93.624 415.664 87.6336C419.013 81.6432 423.59 76.9285 429.393 73.4896C435.197 69.9397 441.727 68.1648 448.982 68.1648C455.01 68.1648 460.311 69.3296 464.888 71.6592C469.576 73.9888 473.259 77.2059 475.938 81.3104C478.617 85.304 480.068 90.0187 480.291 95.4544V120.747C480.068 126.072 478.561 130.842 475.771 135.058C473.092 139.162 469.409 142.379 464.721 144.709C460.144 146.928 454.899 148.037 448.982 148.037ZM453.335 128.235C457.354 128.235 460.813 127.403 463.716 125.739C466.73 123.964 469.074 121.579 470.748 118.584C472.422 115.478 473.259 111.984 473.259 108.101C473.259 104.107 472.422 100.613 470.748 97.6176C469.074 94.6224 466.73 92.2928 463.716 90.6288C460.813 88.8539 457.354 87.9664 453.335 87.9664C449.317 87.9664 445.801 88.8539 442.787 90.6288C439.774 92.2928 437.43 94.6779 435.755 97.784C434.081 100.779 433.244 104.218 433.244 108.101C433.244 111.872 434.081 115.312 435.755 118.418C437.43 121.413 439.774 123.798 442.787 125.573C445.801 127.348 449.317 128.235 453.335 128.235Z" fill="white"/>
</g>
</g>
<path fill-rule="evenodd" clip-rule="evenodd" d="M115.874 36.1791C110.941 42.4658 108 50.3894 108 59C108 79.4345 124.565 96 145 96C150.965 96 156.601 94.5883 161.591 92.0808C161.861 94.5166 162 96.9921 162 99.5C162 105.582 161.183 111.474 159.654 117.072C144.894 131.283 120.58 138.899 95.8391 138.999C69.5305 139.105 44.2394 130.713 30.6959 114.488C29.5863 109.671 29 104.654 29 99.5C29 96.9921 29.1388 94.5166 29.4092 92.0808C34.3992 94.5883 40.0347 96 46 96C66.4345 96 83 79.4345 83 59C83 50.3894 80.0587 42.4658 75.126 36.1791C81.5468 34.1148 88.3932 33 95.5 33C102.607 33 109.453 34.1148 115.874 36.1791ZM124.686 39.7301C119.922 44.7499 117 51.5337 117 59C117 74.464 129.536 87 145 87C150.462 87 155.559 85.4358 159.868 82.731C154.951 63.8049 141.908 48.1554 124.686 39.7301ZM66.3144 39.7301C49.0923 48.1554 36.049 63.8049 31.1323 82.731C35.4405 85.4358 40.5376 87 46 87C61.464 87 74 74.464 74 59C74 51.5337 71.0776 44.7499 66.3144 39.7301ZM95.8713 146.999C116.423 146.916 137.465 141.916 153.649 131.788C142.294 152.194 120.509 166 95.5 166C70.048 166 47.9357 151.701 36.7577 130.699C52.7465 141.849 74.4955 147.085 95.8713 146.999ZM84.5 112C86.9853 112 89 109.985 89 107.5C89 105.015 86.9853 103 84.5 103C82.0147 103 80 105.015 80 107.5C80 109.985 82.0147 112 84.5 112ZM106.5 112C108.985 112 111 109.985 111 107.5C111 105.015 108.985 103 106.5 103C104.015 103 102 105.015 102 107.5C102 109.985 104.015 112 106.5 112Z" fill="white"/>
<path d="M18 59C18 43.536 30.536 31 46 31C61.464 31 74 43.536 74 59C74 74.464 61.464 87 46 87C30.536 87 18 74.464 18 59Z" fill="white"/>
<path d="M32 59C32 51.268 38.268 45 46 45C53.732 45 60 51.268 60 59C60 66.732 53.732 73 46 73C38.268 73 32 66.732 32 59Z" fill="black"/>
<path d="M117 59C117 43.536 129.536 31 145 31C160.464 31 173 43.536 173 59C173 74.464 160.464 87 145 87C129.536 87 117 74.464 117 59Z" fill="white"/>
<path d="M131 59C131 51.268 137.268 45 145 45C152.732 45 159 51.268 159 59C159 66.732 152.732 73 145 73C137.268 73 131 66.732 131 59Z" fill="black"/>
<defs>
<clipPath id="clip0_776_92">
<rect width="293" height="160" fill="white" transform="translate(202 27)"/>
</clipPath>
</defs>
</svg>
