<svg width="182" height="100" viewBox="0 0 182 100" fill="none" xmlns="http://www.w3.org/2000/svg">
<g clip-path="url(#clip0_6_25)">
<path d="M12.688 77V21.36C12.688 17.3387 13.5547 13.8027 15.288 10.752C17.0213 7.632 19.4827 5.17066 22.672 3.368C25.8613 1.56533 29.6053 0.663997 33.904 0.663997C37.1627 0.663997 39.9707 1.21866 42.328 2.32799C44.6853 3.43733 46.8 4.96266 48.672 6.904L40.04 15.64C39.2773 14.8773 38.4453 14.288 37.544 13.872C36.6427 13.456 35.4987 13.248 34.112 13.248C31.616 13.248 29.6747 13.9413 28.288 15.328C26.9707 16.6453 26.312 18.552 26.312 21.048V77H12.688ZM1.04 38.728V26.768H41.184V38.728H1.04Z" fill="white"/>
<path fill-rule="evenodd" clip-rule="evenodd" d="M81.1338 29.4339C79.9152 28.3447 78.6066 27.5254 77.208 26.976C75.2667 26.144 73.0827 25.728 70.656 25.728C65.04 25.728 60.7413 27.5307 57.76 31.136C57.7252 31.1773 57.6905 31.2188 57.656 31.2605V26.768H44.032V77H57.656V49.232C57.656 45.488 58.5573 42.7147 60.36 40.912C62.232 39.04 64.624 38.104 67.536 38.104C68.9227 38.104 70.136 38.312 71.176 38.728C71.995 39.0351 72.7195 39.4556 73.3496 39.9895C73.8299 38.8808 74.384 37.805 75.0116 36.7619C76.6729 33.9517 78.7137 31.5091 81.1338 29.4339Z" fill="white"/>
<path d="M100.64 78.04C95.5787 78.04 91.0027 76.896 86.912 74.608C82.8907 72.2507 79.6667 69.096 77.24 65.144C74.8827 61.1227 73.704 56.6507 73.704 51.728C73.704 46.8053 74.8827 42.4027 77.24 38.52C79.5973 34.568 82.8213 31.448 86.912 29.16C91.0027 26.8027 95.544 25.624 100.536 25.624C105.667 25.624 110.243 26.8027 114.264 29.16C118.355 31.448 121.579 34.568 123.936 38.52C126.293 42.4027 127.472 46.8053 127.472 51.728C127.472 56.6507 126.293 61.1227 123.936 65.144C121.579 69.096 118.355 72.2507 114.264 74.608C110.243 76.896 105.701 78.04 100.64 78.04ZM100.536 65.352C103.101 65.352 105.355 64.7973 107.296 63.688C109.307 62.5093 110.832 60.9147 111.872 58.904C112.981 56.824 113.536 54.4667 113.536 51.832C113.536 49.1973 112.981 46.8747 111.872 44.864C110.763 42.8533 109.237 41.2933 107.296 40.184C105.355 39.0053 103.101 38.416 100.536 38.416C98.04 38.416 95.8213 39.0053 93.88 40.184C91.9387 41.2933 90.4133 42.8533 89.304 44.864C88.1947 46.8747 87.64 49.1973 87.64 51.832C87.64 54.4667 88.1947 56.824 89.304 58.904C90.4133 60.9147 91.9387 62.5093 93.88 63.688C95.8213 64.7973 98.04 65.352 100.536 65.352Z" fill="white"/>
<path d="M154.04 99.256C148.701 99.256 143.987 98.2853 139.896 96.344C135.805 94.472 132.547 91.8027 130.12 88.336L138.752 79.704C140.693 81.992 142.843 83.7253 145.2 84.904C147.627 86.152 150.539 86.776 153.936 86.776C158.165 86.776 161.493 85.7013 163.92 83.552C166.416 81.4027 167.664 78.4213 167.664 74.608V62.024L169.952 51L167.768 39.976V26.768H181.288V74.4C181.288 79.392 180.109 83.7253 177.752 87.4C175.464 91.144 172.275 94.056 168.184 96.136C164.093 98.216 159.379 99.256 154.04 99.256ZM153.416 75.648C148.909 75.648 144.853 74.5733 141.248 72.424C137.643 70.2053 134.8 67.1893 132.72 63.376C130.709 59.5627 129.704 55.2987 129.704 50.584C129.704 45.8693 130.709 41.64 132.72 37.896C134.8 34.152 137.643 31.2053 141.248 29.056C144.853 26.8373 148.909 25.728 153.416 25.728C157.16 25.728 160.453 26.456 163.296 27.912C166.208 29.368 168.496 31.3787 170.16 33.944C171.824 36.44 172.725 39.3867 172.864 42.784V58.592C172.725 61.92 171.789 64.9013 170.056 67.536C168.392 70.1013 166.104 72.112 163.192 73.568C160.349 74.9547 157.091 75.648 153.416 75.648ZM156.12 63.272C158.616 63.272 160.765 62.752 162.568 61.712C164.44 60.6027 165.896 59.112 166.936 57.24C167.976 55.2987 168.496 53.1147 168.496 50.688C168.496 48.192 167.976 46.008 166.936 44.136C165.896 42.264 164.44 40.808 162.568 39.768C160.765 38.6587 158.616 38.104 156.12 38.104C153.624 38.104 151.44 38.6587 149.568 39.768C147.696 40.808 146.24 42.2987 145.2 44.24C144.16 46.112 143.64 48.2613 143.64 50.688C143.64 53.0453 144.16 55.1947 145.2 57.136C146.24 59.008 147.696 60.4987 149.568 61.608C151.44 62.7173 153.624 63.272 156.12 63.272Z" fill="white"/>
</g>
<defs>
<clipPath id="clip0_6_25">
<rect width="182" height="100" fill="white"/>
</clipPath>
</defs>
</svg>
