<svg width="244" height="128" viewBox="0 0 244 128" fill="none" xmlns="http://www.w3.org/2000/svg">
<path d="M40.688 94V38.36C40.688 34.3387 41.5547 30.8027 43.288 27.752C45.0213 24.632 47.4827 22.1707 50.672 20.368C53.8613 18.5653 57.6053 17.664 61.904 17.664C65.1627 17.664 67.9707 18.2187 70.328 19.328C72.6853 20.4373 74.8 21.9627 76.672 23.904L68.04 32.64C67.2773 31.8773 66.4453 31.288 65.544 30.872C64.6427 30.456 63.4987 30.248 62.112 30.248C59.616 30.248 57.6747 30.9413 56.288 32.328C54.9707 33.6453 54.312 35.552 54.312 38.048V94H40.688ZM29.04 55.728V43.768H69.184V55.728H29.04Z" fill="black"/>
<path fill-rule="evenodd" clip-rule="evenodd" d="M109.134 46.4339C107.915 45.3447 106.607 44.5254 105.208 43.976C103.267 43.144 101.083 42.728 98.656 42.728C93.04 42.728 88.7413 44.5307 85.76 48.136C85.7252 48.1773 85.6905 48.2188 85.656 48.2605V43.768H72.032V94H85.656V66.232C85.656 62.488 86.5573 59.7147 88.36 57.912C90.232 56.04 92.624 55.104 95.536 55.104C96.9227 55.104 98.136 55.312 99.176 55.728C99.995 56.0351 100.72 56.4556 101.35 56.9895C101.83 55.8808 102.384 54.805 103.012 53.7619C104.673 50.9517 106.714 48.5091 109.134 46.4339Z" fill="black"/>
<path d="M128.64 95.04C123.579 95.04 119.003 93.896 114.912 91.608C110.891 89.2507 107.667 86.096 105.24 82.144C102.883 78.1227 101.704 73.6507 101.704 68.728C101.704 63.8053 102.883 59.4027 105.24 55.52C107.597 51.568 110.821 48.448 114.912 46.16C119.003 43.8027 123.544 42.624 128.536 42.624C133.667 42.624 138.243 43.8027 142.264 46.16C146.355 48.448 149.579 51.568 151.936 55.52C154.293 59.4027 155.472 63.8053 155.472 68.728C155.472 73.6507 154.293 78.1227 151.936 82.144C149.579 86.096 146.355 89.2507 142.264 91.608C138.243 93.896 133.701 95.04 128.64 95.04ZM128.536 82.352C131.101 82.352 133.355 81.7973 135.296 80.688C137.307 79.5093 138.832 77.9147 139.872 75.904C140.981 73.824 141.536 71.4667 141.536 68.832C141.536 66.1973 140.981 63.8747 139.872 61.864C138.763 59.8533 137.237 58.2933 135.296 57.184C133.355 56.0053 131.101 55.416 128.536 55.416C126.04 55.416 123.821 56.0053 121.88 57.184C119.939 58.2933 118.413 59.8533 117.304 61.864C116.195 63.8747 115.64 66.1973 115.64 68.832C115.64 71.4667 116.195 73.824 117.304 75.904C118.413 77.9147 119.939 79.5093 121.88 80.688C123.821 81.7973 126.04 82.352 128.536 82.352Z" fill="black"/>
<path d="M182.04 116.256C176.701 116.256 171.987 115.285 167.896 113.344C163.805 111.472 160.547 108.803 158.12 105.336L166.752 96.704C168.693 98.992 170.843 100.725 173.2 101.904C175.627 103.152 178.539 103.776 181.936 103.776C186.165 103.776 189.493 102.701 191.92 100.552C194.416 98.4027 195.664 95.4213 195.664 91.608V79.024L197.952 68L195.768 56.976V43.768H209.288V91.4C209.288 96.392 208.109 100.725 205.752 104.4C203.464 108.144 200.275 111.056 196.184 113.136C192.093 115.216 187.379 116.256 182.04 116.256ZM181.416 92.648C176.909 92.648 172.853 91.5733 169.248 89.424C165.643 87.2053 162.8 84.1893 160.72 80.376C158.709 76.5627 157.704 72.2987 157.704 67.584C157.704 62.8693 158.709 58.64 160.72 54.896C162.8 51.152 165.643 48.2053 169.248 46.056C172.853 43.8373 176.909 42.728 181.416 42.728C185.16 42.728 188.453 43.456 191.296 44.912C194.208 46.368 196.496 48.3787 198.16 50.944C199.824 53.44 200.725 56.3867 200.864 59.784V75.592C200.725 78.92 199.789 81.9013 198.056 84.536C196.392 87.1013 194.104 89.112 191.192 90.568C188.349 91.9547 185.091 92.648 181.416 92.648ZM184.12 80.272C186.616 80.272 188.765 79.752 190.568 78.712C192.44 77.6027 193.896 76.112 194.936 74.24C195.976 72.2987 196.496 70.1147 196.496 67.688C196.496 65.192 195.976 63.008 194.936 61.136C193.896 59.264 192.44 57.808 190.568 56.768C188.765 55.6587 186.616 55.104 184.12 55.104C181.624 55.104 179.44 55.6587 177.568 56.768C175.696 57.808 174.24 59.2987 173.2 61.24C172.16 63.112 171.64 65.2613 171.64 67.688C171.64 70.0453 172.16 72.1947 173.2 74.136C174.24 76.008 175.696 77.4987 177.568 78.608C179.44 79.7173 181.624 80.272 184.12 80.272Z" fill="black"/>
</svg>
